<?xml version="1.0" encoding="UTF-8"?><svg id="Layer_1" xmlns="http://www.w3.org/2000/svg" viewBox="0 0 595.07 297.76"><defs><style>.cls-1{fill:#cad22c;}.cls-2{fill:#231f56;}</style></defs><g><path class="cls-2" d="m387.63,252.21c-4.87,0-8.9-.4-12.09-1.19-3.19-.79-5.71-1.81-7.57-3.05-1.9-1.24-3.19-2.56-3.89-3.97-.69-1.41-1.04-2.73-1.04-3.97,0-2.24.84-4.2,2.52-5.88,1.68-1.68,3.91-2.52,6.7-2.52,2.32,0,4.26.6,5.83,1.8,1.57,1.2,2.87,2.71,3.91,4.52.97,1.66,1.78,3.5,2.44,5.51.66,2.01,1.12,3.5,1.39,4.46,4.37,0,7.67-.94,9.91-2.81,2.24-1.87,3.36-4.44,3.36-7.68,0-1.43-.34-2.63-1.01-3.59-.68-.96-1.58-1.82-2.69-2.55-1.12-.7-2.55-1.37-4.29-2.03-1.74-.66-3.46-1.27-5.16-1.85-4.68-1.58-8.38-3.78-11.1-6.58-2.72-2.8-4.09-6.29-4.09-10.47,0-2.47.57-4.8,1.71-6.99,1.14-2.18,2.93-4.2,5.36-6.06,2.4-1.78,5.43-3.2,9.1-4.26,3.67-1.06,7.96-1.59,12.87-1.59,2.94,0,5.66.17,8.18.52,2.51.35,4.85.99,7.02,1.91,2.05.93,3.64,2.14,4.78,3.62,1.14,1.49,1.71,3.3,1.71,5.42s-.8,3.95-2.41,5.48c-1.61,1.53-3.7,2.29-6.29,2.29-2.24,0-4.11-.58-5.6-1.74-1.49-1.16-2.7-2.54-3.62-4.13-.93-1.63-1.66-3.31-2.2-5.03-.54-1.73-.99-3.17-1.33-4.33-2.71.16-5.17,1.14-7.39,2.95-2.22,1.81-3.33,4.05-3.33,6.74,0,1.62.26,2.9.78,3.83.52.93,1.23,1.7,2.12,2.32,1,.7,2.27,1.34,3.8,1.94,1.53.6,3.43,1.28,5.71,2.06,5.26,1.85,9.22,4.08,11.89,6.67,2.67,2.59,4,6.01,4,10.26,0,2.78-.65,5.45-1.94,8-1.29,2.55-3.14,4.68-5.54,6.38-2.67,1.86-5.74,3.26-9.22,4.2-3.48.95-7.91,1.42-13.28,1.42Z"/><path class="cls-2" d="m238.81,194.7c-3.49-4.1-8.7-6.14-15.64-6.14-3.19,0-6.52.76-9.99,2.28-3.47,1.52-7.04,3.88-10.71,7.07h-.48c-.48-1.12-1.07-2.22-1.77-3.3-.7-1.08-1.59-2-2.68-2.76-1.28-.92-2.77-1.59-4.45-2.01-1.69-.42-3.63-.63-5.84-.63-2.65,0-5.45.47-8.42,1.41-2.13.67-4.36,1.48-6.65,2.35-.22.09-.19.4.04.45,2.13.45,3.94,1.11,5.4,2,2.17,1.32,3.52,3.13,4.12,5.41.02.05.04.09.05.14.21.83.32,1.72.32,2.68,0,1.16-.19,2.64-.57,4.44-.38,1.8-.69,3.28-.93,4.44l-11.91,52.33c-.04.21-.12.37-.17.57h.02c-.05.18-.12.34-.17.52-.13.43-.25.87-.41,1.24-.91,2.59-2.03,4.7-3.39,6.25-.98,1.11-2.09,1.9-3.3,2.42-.13.06-.04.16-.04.16h34.13s.55-.12-.03-.43c-.65-.35-1.32-.59-1.89-.94-2.63-1.61-4.14-3.9-4.64-6.81-.14-.34-.14-1.54-.11-2.64.03-.95.73-4.67.73-4.67l2.83-12.42h0s.32-1.42.32-1.42c0,0,0,0,0,0l3.33-14.42,6.53-28.93c.96-1.16,2.45-2.4,4.49-3.72,2.03-1.32,4.11-1.98,6.22-1.98,1.83,0,3.36.34,4.58,1.02,1.22.68,2.18,1.64,2.9,2.88.72,1.2,1.22,2.63,1.5,4.29.28,1.66.42,3.47.42,5.43,0,4.76-.44,9.05-1.32,12.89-.88,3.84-2.17,7.5-3.89,10.97-1.64,3.32-3.6,5.94-5.9,7.85-2.29,1.92-4.68,2.88-7.15,2.88-2.99,0-5.29-.91-6.88-2.73-.65-.74-1.14-1.59-1.52-2.49l-1.6,7.16c1.33.81,2.75,1.53,4.37,2.05,2.34.74,5.43,1.11,9.26,1.11,5.11,0,9.79-1,14.03-3,4.24-2,8.05-4.84,11.45-8.51,3.28-3.56,5.86-7.77,7.76-12.62,1.9-4.86,2.85-9.96,2.85-15.32,0-7.11-1.74-12.72-5.23-16.82Z"/><path class="cls-2" d="m594.5,192.42c.34.2.56.42.56.82s-10.2,47.14-10.2,47.14c-1.55,7.04-3.71,12.84-6.49,17.43-2.78,4.58-6.01,8.22-9.67,10.93-3.52,2.59-7.32,4.45-11.41,5.6-4.09,1.14-8.24,1.71-12.45,1.71-4.6,0-8.41-.34-11.44-1.01-3.03-.68-5.4-1.61-7.1-2.81-1.54-1.08-2.6-2.29-3.16-3.62-.56-1.33-.84-2.64-.84-3.91,0-2.24.79-4.23,2.37-5.97,1.58-1.74,3.74-2.61,6.48-2.61,2.08,0,3.95.56,5.59,1.68,1.64,1.12,3.08,2.47,4.31,4.06,1.2,1.51,2.27,3.18,3.21,5.02.9,1.75,1.6,3.19,2.1,4.33.04.1.14.16.25.13.66-.13,1.46-.36,2.4-.69,1.02-.37,1.88-.78,2.58-1.25,1-.66,1.89-1.32,2.66-1.97.77-.66,1.66-1.66,2.66-3.01,1.93-2.59,3.65-5.8,5.15-9.63,1.51-3.83,2.78-8.41,3.82-13.74,0,0-6.62,6.39-12.44,8.29-3.78,1.24-7.72,2.32-12.15,2.32-6.14,0-10.32-2.47-12.53-7.4-.76-1.69-1.04-3.56-1-5.41.02-1.01.08-2.04.2-3.08.13-1.24.49-2.98,1.08-5.22l4.37-15.83c.59-1.84,1.65-6.99,1.65-8.38,0-3.54-1.45-6.19-4.35-7.96-1.51-.92-3.43-1.58-5.68-2.01-.24-.05-.27-.37-.04-.46,2.3-.89,4.53-1.69,6.67-2.37,2.86-.91,5.57-1.36,8.13-1.36,6.35,0,10.7,2.19,13.04,6.58,1.08,2.04,1.44,4.38,1.32,6.69-.14,2.75-.64,5.42-1.12,7.74,0,0,0,.01,0,.02l-4.24,15.08c-.39,1.35-.7,2.8-.93,4.35-.23,1.55-.35,2.67-.35,3.37,0,1.94.47,3.41,1.42,4.41.95,1.01,2.44,1.51,4.48,1.51,1.69,0,3.84-.65,6.44-1.96,2.58-1.3,4.95-3.02,7.13-5.18.03-.03.06-.08.07-.13l6.05-28.35h0s.72-3.38.72-3.38c0,0,0-.02,0-.03,1.09-3.37,3.79-8.28,10.43-10.1.02,0,.04,0,.06,0l9.54-.42s.45-.04.67.09Z"/><path class="cls-1" d="m344.83,156.89c5.05,3.26,8.87,11.28,8.76,17.84.25,2.41-.49,9.07-1.23,11.86,0,.03-.06.03-.05,0,.47-3.9-.99-11.46-4.08-13.78-3.52-2.64-6.46-1.83-11.56,1.03,0,0-5.89,3.28-10.89-1.19-4.23-3.79-4.12-10.45-.16-14.52,5.67-5.83,13.68-4.81,19.21-1.24Z"/><path class="cls-2" d="m458.58,240.07c-.76.35-1.86.73-3.31,1.13-1.65.45-3.1.62-4.35.49-2.67-.27-4.49-1.06-5.45-2.39-.96-1.33-1.27-3.68-.94-7.06.13-1.34.5-3.3,1.1-5.89.59-2.59,1.21-4.87,1.83-6.87l7.95-25.82c.73-2.28,1.33-4.8,1.8-7.58.47-2.77.75-4.71.86-5.82.53-5.35-.38-9.84-2.74-13.46-2.37-3.62-6.04-5.67-11.02-6.17-2.76-.28-5.76.12-8.99,1.17-3.23,1.06-6.64,2.38-10.22,3.96l-.07.24c1.91.3,3.61.78,5.08,1.45,2.45,1.11,4.4,2.67,5.39,4.88.89,2,1.71,5.26,1.6,7.47-.01.29-.02.59-.05.88-.01.16-.01.3-.03.46-.18,1.8-.53,3.78-1.07,5.93-.53,2.15-1.15,4.43-1.86,6.82l-7.72,24.97c-.73,2.63-1.3,5-1.72,7.1-.42,2.1-.73,4.17-.94,6.21-.52,5.24.44,9.69,2.87,13.38,1.87,2.82,4.5,4.7,7.88,5.65.06.02.13.05.2.06.23.06.5.12.8.18.74.16,1.5.3,2.31.38.95.09,2.19.03,3.46-.1,2.15-.11,4.51-.46,6.76-1.17,0,0,.03,0,.04,0,.02,0,.03-.01.05-.02.08-.03.16-.05.23-.08.87-.27,1.68-.61,2.43-1,1.62-.81,3.09-1.89,4.24-3.28,2.31-2.49,3.46-5.15,3.79-6,.07-.18-.09-.18-.2-.13Z"/><path class="cls-2" d="m359.09,242c-.67.28-1.65.6-2.93.96-1.49.41-2.82.62-3.99.62-2.5,0-4.27-.41-5.28-1.23-1.02-.82-1.52-2.37-1.52-4.64,0-.9.16-2.23.47-4,.31-1.76.67-3.33,1.06-4.7l4.83-17.1c.47-1.57.79-3.29.97-5.17.18-1.88.26-3.19.26-3.94,0-3.6-1.27-6.53-3.79-8.79-2.53-2.25-6.13-3.38-10.8-3.38-2.59,0-5.33.46-8.24,1.38-2.15.68-4.4,1.5-6.71,2.39-.23.09-.19.42.04.46,2.19.44,4.06,1.1,5.55,2.01,1.6.98,2.73,2.25,3.46,3.76.68.9,1.03,2.27,1.03,4.17,0,1.21-.14,2.55-.44,4.03-.29,1.47-.66,3.03-1.09,4.67l-4.85,17.16c-.43,1.8-.75,3.42-.94,4.85-.2,1.43-.29,2.83-.29,4.2,0,3.53,1.3,6.43,3.91,8.73,1.52,1.34,3.41,2.27,5.64,2.83.04.01.08.03.12.04,3.52,1.09,15.84,1.21,20.95-5.32.01-.02.01-.03.02-.05,1.5-1.63,2.4-3.18,2.72-3.79.09-.17-.05-.18-.16-.14Z"/><path class="cls-2" d="m317.14,245.88c1.73-1.84,2.48-3.59,2.67-4.08.03-.09-.03-.1-.07-.08-.63.26-1.66.59-3.08.99-1.52.42-2.81.63-3.89.63-2.46,0-4.19-.41-5.19-1.24-1-.83-1.5-2.33-1.5-4.52,0-.92.17-2.28.52-4.06.34-1.79.67-3.27.98-4.47l8.49-35.44s.35-1.16-.81-.92c-1.16.24-17.68,3.63-17.68,3.63-1.65-1.38-3.78-2.48-6.37-3.28-2.49-.77-5.38-1.18-8.68-1.21-4.56-.04-9.06.84-13.22,2.71-4.55,2.04-8.51,4.88-11.87,8.52-3.15,3.49-5.67,7.54-7.55,12.15-1.88,4.61-2.83,9.54-2.83,14.8,0,6.83,1.69,12.22,5.07,16.15,3.38,3.93,8.42,5.9,15.11,5.9,2.15,0,4.12-.28,5.91-.83,1.79-.56,3.49-1.25,5.1-2.09,1.85-.95,3.37-1.91,4.58-2.86.62-.49,1.28-1.02,1.94-1.57.08-.07.11-.17.07-.27-.32-.67-.61-1.58-.82-2.62-.09-.45-.15-.89-.19-1.3,0-.05-.09-.07-.13-.04-.56.44-1.12.87-1.72,1.25-1.67,1.06-3.42,1.58-5.22,1.58s-3.24-.33-4.42-.98c-1.17-.65-2.11-1.57-2.8-2.76-.65-1.11-1.13-2.47-1.41-4.09-.29-1.61-.43-3.36-.43-5.24,0-4.14.46-8.2,1.38-12.17.93-3.97,2.19-7.45,3.81-10.45,1.65-3.03,3.55-5.46,5.68-7.28,2.14-1.82,4.47-2.73,7.01-2.73,1.65,0,3.04.26,4.15.78,1.12.52,2.02,1.28,2.71,2.28.58.8.98,1.78,1.21,2.93.23,1.15.35,2.15.35,2.99,0,0-6.82,28.35-7.11,30.18-.62,3.85.26,6.37.26,6.37.92,2.46,2.56,4.46,4.92,6.02,1.2.79,2.61,1.38,4.22,1.77.02,0,.03.01.05.02,1.04.31,2.86.54,5.03.54.06,0,.11,0,.17,0,.05,0,.1,0,.15,0,.29,0,.59-.01.89-.02.03,0,.07,0,.1,0,4.94-.2,11.15-1.57,14.45-5.55Z"/><path class="cls-2" d="m515.71,232.91c-.03-.2-.28-.27-.41-.1-2.8,3.61-5.74,6.26-8.8,7.95-3.19,1.76-7.07,2.64-11.63,2.64-2.63,0-4.8-.51-6.5-1.53-1.7-1.02-3.01-2.41-3.94-4.15-.77-1.51-1.35-3.33-1.74-5.45-.38-2.08-.61-3.95-.69-5.63-3.11.39-8.56.45-11.13.11-.04,0-.03-.06,0-.06,3.06-.03,10.9-2.43,11.46-6.34,2.63-16.23,7.31-20.68,7.52-20.93,1.87-2.23,3.81-3.34,5.83-3.34,1.81,0,3.27.64,4.41,1.91,0,0,0,0,0,0,.2.22.39.46.57.73.69,1.01,1.17,2.29,1.47,3.81,1.04,4.07.35,8.48-1.35,12.14-2.54,5.46-9.64,10.34-16.19,11.55.01,0,.02,0,.04,0,3.19-.38,5.99-.78,8.35-1.21,3-.54,6.62-1.45,10.87-2.73,5.37-1.47,9.62-3.72,12.76-6.76,3.13-3.03,4.7-6.66,4.7-10.87,0-3.36-1.06-6.07-3.15-8.15-.04-.04-.09-.08-.13-.12-.29-.28-.59-.55-.92-.81-.38-.3-.79-.58-1.22-.84-2.71-1.65-6.35-2.68-10.92-3.1-1.52-.14-3.15-.21-4.88-.21-.78,0-1.55.02-2.31.06-.11,0-.21.02-.32.02-.67.04-1.34.08-1.99.15-.05,0-.1.01-.15.02-4.04.41-7.83,1.35-11.35,2.83-.18.08-.35.16-.53.23h0s0,0,0,0c-1.73.76-3.36,1.59-4.87,2.51-.01,0-.03.02-.04.03-.49.3-.96.6-1.43.91-.05.03-.1.07-.15.11-.42.29-.84.58-1.25.88-.11.08-.21.16-.31.25-.34.26-.69.53-1.02.8-.19.16-.37.33-.56.49-.24.21-.48.41-.71.62-.41.38-.81.77-1.2,1.17-.54.56-1.06,1.13-1.56,1.71-.09.1-.18.21-.27.32-.48.57-.95,1.15-1.39,1.74,0,0,0,0,0,0h0c-1.81,2.43-3.27,5.04-4.38,7.82-1.7,4.29-2.55,8.72-2.55,13.28,0,3.59.56,6.88,1.68,9.86,1.12,2.98,2.8,5.59,5.04,7.83,2.28,2.24,5.17,3.99,8.67,5.25,3.5,1.26,7.57,1.89,12.2,1.89,5.99,0,11.7-1.48,17.13-4.44,4.48-2.44,8.26-5.6,11.41-9.39.07-.08.07-.21,0-.29-1.1-1.43-1.85-3.14-2.2-5.18Z"/></g><path class="cls-2" d="m136.07.11C84.42-2,42.38,25.09,16.17,71.17-1.76,102.7-7.15,159.96,12.28,210.54c13.72,35.6,49.16,73.07,79.07,82.9,27.75,9.13,49.17,3.6,53.51-14.91,4.34-18.51-11.28-31.52-25.74-30.95-14.46.58-21.11,7.81-21.11,21.11s14.9,16.7,14.9,16.7c-23.86,4.41-39.48-19.29-41.21-41.28-2.02-25.74,27.47-41.07,54.33-46.3,23.6-4.6,80.15-23.69,93.45-66.78C243.46,53.38,181.79,1.98,136.07.11Zm-17.39,263.04c-.16,1.97-3.47,4.5-4.8,4.32-.67-.09-2.47.02-4.19-.93-1.49-.82-2.99-4.32-2.46-6.62.44-1.94,3.57-3.66,6.09-3.74,2.52-.08,3.25,1.4,4.43,2.5,1.18,1.1.93,4.46.93,4.46Zm13.98,1.85c-.55.89-3.91,4.5-4.84,2.68,0,0-.07-1.89-.27-2.27s-2.3-3.05-3.29-2.92-2.78.37-2.78,0-.24-3.38,2.4-4.63c2.33-1.1,5.97-.82,7.52,1.41,2.02,2.91,1.82,4.84,1.27,5.73Zm-7.72,8.75c.16-1.97,3.47-4.5,4.8-4.32.67.09,2.47-.02,4.19.93,1.49.82,2.99,4.32,2.46,6.62-.44,1.94-3.57,3.66-6.09,3.74-2.52.08-3.25-1.4-4.43-2.5-1.18-1.1-.93-4.46-.93-4.46Zm-2.82-1.86c-2.18,0-3.94-1.76-3.94-3.94s1.76-3.94,3.94-3.94,3.94,1.76,3.94,3.94-1.76,3.94-3.94,3.94Zm-8.75,6.5c-.65-.65-2.33-3.23-1.75-5.08.58-1.85,1.2-2.88,2.33-3.33,0,0,2.4-.51,2.78,0s2.85,3.4,3.36,3.5c.51.1,2.3-.21,2.47,0,.17.21.38,1.92,0,2.47s-1.33,3.29-4.2,3.74c-2.87.45-4.34-.65-5-1.3Z"/></svg>