<?xml version="1.0" encoding="UTF-8"?><svg id="logo_present" xmlns="http://www.w3.org/2000/svg" viewBox="0 0 158.31 196.69"><defs><style>.cls-1{fill:#cad22c;}</style></defs><path class="cls-1" d="m91.59,20.17c-27.14-1.11-49.23,13.12-63,37.34-9.42,16.56-12.26,46.65-2.04,73.23,7.21,18.71,25.83,38.39,41.55,43.56,14.58,4.8,25.84,1.89,28.12-7.83,2.28-9.73-5.93-16.56-13.53-16.26-7.6.3-11.09,4.1-11.09,11.09s7.83,8.78,7.83,8.78c-12.54,2.32-20.75-10.14-21.66-21.69-1.06-13.53,14.44-21.58,28.55-24.33,12.4-2.42,42.12-12.45,49.11-35.09,12.6-40.81-19.81-67.81-43.83-68.8Zm-9.14,138.22c-.09,1.04-1.82,2.36-2.52,2.27-.35-.05-1.3.01-2.2-.49-.78-.43-1.57-2.27-1.29-3.48.23-1.02,1.88-1.92,3.2-1.96,1.33-.04,1.71.73,2.33,1.31.62.58.49,2.34.49,2.34Zm7.34.97c-.29.47-2.06,2.36-2.54,1.41,0,0-.04-.99-.14-1.19s-1.21-1.6-1.73-1.53-1.46.19-1.46,0-.13-1.78,1.26-2.43c1.23-.58,3.14-.43,3.95.74,1.06,1.53.96,2.54.67,3.01Zm-4.06,4.6c.09-1.04,1.82-2.36,2.52-2.27.35.05,1.3-.01,2.2.49.78.43,1.57,2.27,1.29,3.48-.23,1.02-1.88,1.92-3.2,1.96-1.33.04-1.71-.73-2.33-1.31-.62-.58-.49-2.34-.49-2.34Zm-1.48-.98c-1.14,0-2.07-.93-2.07-2.07s.93-2.07,2.07-2.07,2.07.93,2.07,2.07-.93,2.07-2.07,2.07Zm-4.6,3.41c-.34-.34-1.23-1.7-.92-2.67.31-.97.63-1.51,1.23-1.75,0,0,1.26-.27,1.46,0s1.5,1.79,1.77,1.84c.27.05,1.21-.11,1.3,0,.09.11.2,1.01,0,1.3s-.7,1.73-2.21,1.97c-1.51.23-2.28-.34-2.63-.69Z"/></svg>